<svg width="24" height="24" viewBox="0 0 24 24" fill="none" xmlns="http://www.w3.org/2000/svg">
<path d="M23.205 11.745C22.3483 9.50312 20.8544 7.56085 18.9075 6.1575L22.5 2.5575L21.4425 1.5L1.5 21.4425L2.5575 22.5L6.3825 18.6825C8.08982 19.6776 10.0241 20.2173 12 20.25C14.4446 20.1581 16.8087 19.3518 18.8001 17.9309C20.7915 16.51 22.3229 14.5368 23.205 12.255C23.2646 12.0902 23.2646 11.9098 23.205 11.745ZM12 16.875C10.9662 16.8745 9.95966 16.5434 9.1275 15.93L10.5 14.5725C11.0691 14.8843 11.724 15.0032 12.3663 14.9113C13.0087 14.8194 13.604 14.5217 14.0629 14.0629C14.5217 13.604 14.8194 13.0087 14.9113 12.3663C15.0032 11.724 14.8843 11.0691 14.5725 10.5L15.93 9.1425C16.4584 9.8682 16.7758 10.7259 16.8471 11.6207C16.9184 12.5155 16.7409 13.4126 16.3342 14.2129C15.9275 15.0131 15.3074 15.6853 14.5425 16.1551C13.7776 16.6249 12.8977 16.8741 12 16.875Z" fill="#8C8C8C"/>
<path d="M3.39743 16.3575L7.14742 12.6075C7.12792 12.4056 7.12041 12.2028 7.12493 12C7.12691 10.7077 7.64116 9.46886 8.55497 8.55505C9.46878 7.64123 10.7076 7.12698 11.9999 7.125C12.198 7.12605 12.3958 7.13857 12.5924 7.1625L15.4274 4.335C14.3241 3.95603 13.1665 3.75847 11.9999 3.75C9.55531 3.84193 7.19122 4.64817 5.19983 6.06906C3.20844 7.48996 1.67705 9.46324 0.794925 11.745C0.73535 11.9098 0.73535 12.0902 0.794925 12.255C1.37094 13.787 2.25692 15.1836 3.39743 16.3575Z" fill="#8C8C8C"/>
</svg>
